<svg width="25" height="25" viewBox="0 0 25 25" fill="none" xmlns="http://www.w3.org/2000/svg">
<path d="M5.20833 13.2912C5.20833 11.8769 5.20833 11.1697 5.49422 10.5481C5.78012 9.92649 6.31705 9.46628 7.39088 8.54585L8.43255 7.65299C10.3735 5.98931 11.344 5.15747 12.5 5.15747C13.656 5.15747 14.6265 5.98931 16.5674 7.65299L17.6091 8.54585C18.6829 9.46628 19.2199 9.92649 19.5057 10.5481C19.7917 11.1697 19.7917 11.8769 19.7917 13.2912V17.7083C19.7917 19.6724 19.7917 20.6545 19.1815 21.2647C18.5712 21.8749 17.5892 21.8749 15.625 21.8749H9.37499C7.41081 21.8749 6.42871 21.8749 5.81853 21.2647C5.20833 20.6545 5.20833 19.6724 5.20833 17.7083V13.2912Z" stroke="#80CC28" stroke-width="2"/>
<path d="M15.1042 21.875V16.6667C15.1042 16.0914 14.6378 15.625 14.0625 15.625H10.9375C10.3622 15.625 9.89583 16.0914 9.89583 16.6667V21.875" stroke="#80CC28" stroke-width="2" stroke-linecap="round" stroke-linejoin="round"/>
</svg>
