<svg width="25" height="25" viewBox="0 0 25 25" fill="none" xmlns="http://www.w3.org/2000/svg">
<path d="M15.1042 21.875V16.6667C15.1042 16.0914 14.6378 15.625 14.0625 15.625H10.9375C10.3622 15.625 9.89583 16.0914 9.89583 16.6667V21.875" stroke="#666666" stroke-width="2" stroke-linecap="round" stroke-linejoin="round"/>
<path d="M5.20833 11.4583V17.7083C5.20833 19.6724 5.20833 20.6545 5.81853 21.2647C6.42872 21.8749 7.41081 21.8749 9.375 21.8749H15.625C17.5892 21.8749 18.5712 21.8749 19.1815 21.2647C19.7917 20.6545 19.7917 19.6724 19.7917 17.7083V11.4583" stroke="#666666" stroke-width="2"/>
<path d="M4.81382 4.70305C5.00329 3.94518 5.09802 3.56624 5.38059 3.34561C5.66316 3.125 6.05375 3.125 6.83495 3.125H18.165C18.9463 3.125 19.3369 3.125 19.6194 3.34561C19.902 3.56624 19.9967 3.94518 20.1861 4.70305L21.4399 9.7181C21.5408 10.1216 21.5913 10.3234 21.5801 10.4873C21.5513 10.9122 21.2667 11.2768 20.8614 11.4078C20.7051 11.4583 20.4923 11.4583 20.0668 11.4583C19.5114 11.4583 19.2338 11.4583 19.0005 11.404C18.3472 11.2518 17.8071 10.7943 17.5495 10.1748C17.4576 9.9537 17.4129 9.686 17.3238 9.15059C17.2988 9.00079 17.2863 8.9259 17.2721 8.90619C17.2305 8.84832 17.1445 8.84832 17.1029 8.90619C17.0888 8.9259 17.0763 9.00079 17.0513 9.15059L16.9664 9.66022C16.9574 9.71425 16.9528 9.74126 16.9483 9.76493C16.7645 10.7297 15.9319 11.4351 14.95 11.4578C14.9259 11.4583 14.8985 11.4583 14.8438 11.4583C14.789 11.4583 14.7616 11.4583 14.7375 11.4578C13.7556 11.4351 12.923 10.7297 12.7392 9.76493C12.7347 9.74126 12.7301 9.71425 12.7211 9.66022L12.6363 9.15059C12.6113 9.00079 12.5988 8.9259 12.5846 8.90619C12.543 8.84832 12.457 8.84832 12.4154 8.90619C12.4013 8.9259 12.3888 9.00079 12.3638 9.15059L12.2789 9.66022C12.2699 9.71425 12.2653 9.74126 12.2608 9.76493C12.077 10.7297 11.2444 11.4351 10.2625 11.4578C10.2384 11.4583 10.211 11.4583 10.1563 11.4583C10.1015 11.4583 10.0741 11.4583 10.05 11.4578C9.06814 11.4351 8.23548 10.7297 8.05167 9.76493C8.04716 9.74126 8.04266 9.71425 8.03365 9.66022L7.94871 9.15059C7.92374 9.00079 7.91126 8.9259 7.89711 8.90619C7.85554 8.84832 7.76946 8.84832 7.7279 8.90619C7.71374 8.9259 7.70126 9.00079 7.67629 9.15059C7.58705 9.686 7.54244 9.9537 7.45051 10.1748C7.19296 10.7943 6.65287 11.2518 5.99949 11.404C5.76628 11.4583 5.4886 11.4583 4.93324 11.4583C4.50768 11.4583 4.29489 11.4583 4.13861 11.4078C3.73337 11.2768 3.44873 10.9122 3.41987 10.4873C3.40874 10.3234 3.45918 10.1216 3.56005 9.7181L4.81382 4.70305Z" stroke="#666666" stroke-width="2"/>
</svg>
